<svg xmlns="http://www.w3.org/2000/svg" width="430" height="430" style="width:100%;height:100%;transform:translate3d(0,0,0);content-visibility:visible" viewBox="0 0 430 430"><defs><clipPath id="z"><path d="M0 0h430v430H0z"/></clipPath><clipPath id="ah"><path d="M0 0h430v430H0z"/></clipPath><clipPath id="ai"><path d="M0 0h430v430H0z"/></clipPath><clipPath id="ak"><path d="M0 0h430v430H0z"/></clipPath><clipPath id="ad"><path d="M0 0h430v430H0z"/></clipPath><clipPath id="ae"><path d="M0 0h430v430H0z"/></clipPath><clipPath id="aa"><path d="M0 0h430v430H0z"/></clipPath><clipPath id="ab"><path d="M0 0h430v430H0z"/></clipPath><clipPath id="S"><path d="M0 0h430v430H0z"/></clipPath><clipPath id="V"><path d="M0 0h430v430H0z"/></clipPath><clipPath id="X"><path d="M0 0h430v430H0z"/></clipPath><clipPath id="T"><path d="M0 0h430v430H0z"/></clipPath><clipPath id="K"><path d="M0 0h430v430H0z"/></clipPath><clipPath id="N"><path d="M0 0h430v430H0z"/></clipPath><clipPath id="P"><path d="M0 0h430v430H0z"/></clipPath><clipPath id="L"><path d="M0 0h430v430H0z"/></clipPath><clipPath id="G"><path d="M0 0h430v430H0z"/></clipPath><clipPath id="H"><path d="M0 0h430v430H0z"/></clipPath><clipPath id="A"><path d="M0 0h430v430H0z"/></clipPath><clipPath id="B"><path d="M0 0h430v430H0z"/></clipPath><clipPath id="E"><path d="M0 0h430v430H0z"/></clipPath><mask id="al" mask-type="alpha"><use xmlns:ns1="http://www.w3.org/1999/xlink" ns1:href="#a"/></mask><mask id="aj" mask-type="alpha"><use xmlns:ns2="http://www.w3.org/1999/xlink" ns2:href="#b"/></mask><mask id="ag" mask-type="alpha"><use xmlns:ns3="http://www.w3.org/1999/xlink" ns3:href="#c"/></mask><mask id="ac" mask-type="alpha"><use xmlns:ns4="http://www.w3.org/1999/xlink" ns4:href="#d"/></mask><mask id="Z" mask-type="alpha"><g filter="url(#e)"><path fill="#fff" d="M0 0h430v430H0z" opacity="0"/><use xmlns:ns5="http://www.w3.org/1999/xlink" ns5:href="#f"/></g></mask><mask id="Y" mask-type="alpha"><g filter="url(#g)"><path fill="#fff" d="M0 0h430v430H0z" opacity="0"/><use xmlns:ns6="http://www.w3.org/1999/xlink" ns6:href="#h"/></g></mask><mask id="W" mask-type="alpha"><g filter="url(#i)"><path fill="#fff" d="M0 0h430v430H0z" opacity="0"/><use xmlns:ns7="http://www.w3.org/1999/xlink" ns7:href="#j"/></g></mask><mask id="U" mask-type="alpha"><use xmlns:ns8="http://www.w3.org/1999/xlink" ns8:href="#k"/></mask><mask id="R" mask-type="alpha"><g filter="url(#l)"><path fill="#fff" d="M0 0h430v430H0z" opacity="0"/><use xmlns:ns9="http://www.w3.org/1999/xlink" ns9:href="#m"/></g></mask><mask id="Q" mask-type="alpha"><g filter="url(#n)"><path fill="#fff" d="M0 0h430v430H0z" opacity="0"/><use xmlns:ns10="http://www.w3.org/1999/xlink" ns10:href="#o"/></g></mask><mask id="O" mask-type="alpha"><g filter="url(#p)"><path fill="#fff" d="M0 0h430v430H0z" opacity="0"/><use xmlns:ns11="http://www.w3.org/1999/xlink" ns11:href="#q"/></g></mask><mask id="M" mask-type="alpha"><use xmlns:ns12="http://www.w3.org/1999/xlink" ns12:href="#r"/></mask><mask id="J" mask-type="alpha"><g filter="url(#s)"><path fill="#fff" d="M0 0h430v430H0z" opacity="0"/><use xmlns:ns13="http://www.w3.org/1999/xlink" ns13:href="#t"/></g></mask><mask id="I" mask-type="alpha"><g filter="url(#u)"><path fill="#fff" d="M0 0h430v430H0z" opacity="0"/><use xmlns:ns14="http://www.w3.org/1999/xlink" ns14:href="#v"/></g></mask><mask id="F" mask-type="alpha"><use xmlns:ns15="http://www.w3.org/1999/xlink" ns15:href="#w"/></mask><mask id="C" mask-type="alpha"><g filter="url(#x)"><path fill="#fff" d="M0 0h430v430H0z" opacity="0"/><use xmlns:ns16="http://www.w3.org/1999/xlink" ns16:href="#y"/></g></mask><path id="f" style="display:none"/><path id="k" style="display:none"/><path id="q" style="display:none"/><path id="m" style="display:none"/><path id="r" style="display:none"/><path id="t" fill-opacity="0" stroke-linecap="round" style="display:none"/><path id="v" fill-opacity="0" stroke-linecap="round" style="display:none"/><path id="y" fill-opacity="0" stroke-linecap="round" style="display:none"/><path id="b" style="display:none"/><path id="a" style="display:none"/><path id="c" fill="red" d="M215 94.342c-84.003 0-156.476 49.36-190 120.658 33.524 71.298 105.998 120.658 190 120.658 84.003 0 156.476-49.36 190-120.658-33.524-71.298-105.998-120.658-190-120.658" style="display:block"/><path id="d" style="display:none"/><path id="h" style="display:none"/><path id="o" style="display:none"/><path id="w" style="display:none"/><filter id="e" width="100%" height="100%" x="0%" y="0%" filterUnits="objectBoundingBox"><feComponentTransfer in="SourceGraphic"><feFuncA tableValues="1.0 0.0" type="table"/></feComponentTransfer></filter><filter id="g" width="100%" height="100%" x="0%" y="0%" filterUnits="objectBoundingBox"><feComponentTransfer in="SourceGraphic"><feFuncA tableValues="1.0 0.0" type="table"/></feComponentTransfer></filter><filter id="i" width="100%" height="100%" x="0%" y="0%" filterUnits="objectBoundingBox"><feComponentTransfer in="SourceGraphic"><feFuncA tableValues="1.0 0.0" type="table"/></feComponentTransfer></filter><filter id="l" width="100%" height="100%" x="0%" y="0%" filterUnits="objectBoundingBox"><feComponentTransfer in="SourceGraphic"><feFuncA tableValues="1.0 0.0" type="table"/></feComponentTransfer></filter><filter id="n" width="100%" height="100%" x="0%" y="0%" filterUnits="objectBoundingBox"><feComponentTransfer in="SourceGraphic"><feFuncA tableValues="1.0 0.0" type="table"/></feComponentTransfer></filter><filter id="p" width="100%" height="100%" x="0%" y="0%" filterUnits="objectBoundingBox"><feComponentTransfer in="SourceGraphic"><feFuncA tableValues="1.0 0.0" type="table"/></feComponentTransfer></filter><filter id="s" width="100%" height="100%" x="0%" y="0%" filterUnits="objectBoundingBox"><feComponentTransfer in="SourceGraphic"><feFuncA tableValues="1.0 0.0" type="table"/></feComponentTransfer></filter><filter id="u" width="100%" height="100%" x="0%" y="0%" filterUnits="objectBoundingBox"><feComponentTransfer in="SourceGraphic"><feFuncA tableValues="1.0 0.0" type="table"/></feComponentTransfer></filter><filter id="x" width="100%" height="100%" x="0%" y="0%" filterUnits="objectBoundingBox"><feComponentTransfer in="SourceGraphic"><feFuncA tableValues="1.0 0.0" type="table"/></feComponentTransfer></filter><g id="j" style="display:none"><path fill-opacity="0" stroke-linecap="round" stroke-linejoin="round" class="primary"/><path/></g></defs><g clip-path="url(#z)"><g clip-path="url(#A)" style="display:none"><g clip-path="url(#B)" mask="url(#C)" style="display:none"><g clip-path="url(#E)" mask="url(#F)" style="display:none"><path class="secondary" style="display:none"/><path class="secondary" style="mix-blend-mode:multiply;display:none"/><path class="quaternary" style="display:none"/><path class="quaternary" style="mix-blend-mode:multiply;display:none"/><path fill="none" class="primary" style="display:none"/><path class="tertiary" style="display:none"/><path class="tertiary" style="mix-blend-mode:multiply;display:none"/><path class="secondary" style="display:none"/></g><path fill="none" class="primary" style="display:none"/></g><path fill="none" class="senary" style="display:none"/></g><g clip-path="url(#G)" style="display:none"><g clip-path="url(#H)" mask="url(#I)" style="display:none"><path class="secondary" style="display:none"/><path class="secondary" style="mix-blend-mode:multiply;display:none"/><path class="quaternary" style="display:none"/><path class="quaternary" style="mix-blend-mode:multiply;display:none"/><path fill="none" class="primary" style="display:none"/><path class="tertiary" style="display:none"/><path class="tertiary" style="mix-blend-mode:multiply;display:none"/><path class="secondary" style="display:none"/></g><g mask="url(#J)" style="display:none"><path fill="none" class="primary"/></g><path fill="none" class="senary" style="display:none"/></g><g clip-path="url(#K)" style="display:none"><g clip-path="url(#L)" mask="url(#M)" style="display:none"><path class="secondary" style="display:none"/><path class="secondary" style="mix-blend-mode:multiply;display:none"/><path class="quaternary" style="display:none"/><path class="quaternary" style="mix-blend-mode:multiply;display:none"/><path fill="none" class="primary" style="display:none"/><path class="tertiary" style="display:none"/><path class="tertiary" style="mix-blend-mode:multiply;display:none"/><path class="secondary" style="display:none"/></g><path fill="none" class="primary" style="display:none"/><g clip-path="url(#N)" mask="url(#O)" style="display:none"><g clip-path="url(#P)" mask="url(#Q)" style="display:none"><path class="quinary" style="display:none"/><g mask="url(#R)" style="mix-blend-mode:multiply;display:none"><path class="quinary"/></g></g></g><path fill="none" class="primary" style="display:none"/><path fill="none" class="primary" style="display:none"/></g><g clip-path="url(#S)" style="display:none"><g clip-path="url(#T)" mask="url(#U)" style="display:none"><path class="secondary" style="display:none"/><path class="secondary" style="mix-blend-mode:multiply;display:none"/><path class="quaternary" style="display:none"/><path class="quaternary" style="mix-blend-mode:multiply;display:none"/><path fill="none" class="primary" style="display:none"/><path class="tertiary" style="display:none"/><path class="tertiary" style="mix-blend-mode:multiply;display:none"/><path class="secondary" style="display:none"/></g><g clip-path="url(#V)" mask="url(#W)" style="display:none"><g clip-path="url(#X)" mask="url(#Y)" style="display:none"><path class="quinary" style="display:none"/><g mask="url(#Z)" style="mix-blend-mode:multiply;display:none"><path class="quinary"/></g></g></g><path fill="none" class="primary" style="display:none"/><path fill="none" class="primary" style="display:none"/><path fill="none" class="primary" style="display:none"/></g><g clip-path="url(#aa)" style="display:none"><g clip-path="url(#ab)" mask="url(#ac)" style="display:none"><path class="secondary" style="display:none"/><path class="secondary" style="mix-blend-mode:multiply;display:none"/><path class="quaternary" style="display:none"/><path class="quaternary" style="mix-blend-mode:multiply;display:none"/><path class="tertiary" style="display:none"/><path class="tertiary" style="mix-blend-mode:multiply;display:none"/><path class="secondary" style="display:none"/></g><path fill="none" class="primary" style="display:none"/><path fill="none" class="primary" style="display:none"/></g><g clip-path="url(#ad)" style="display:block"><g clip-path="url(#ae)" mask="url(#ag)" style="display:block"><path fill="#EBE6EF" d="M-189.395-1.275a2.96 2.96 0 0 0 0 2.551C-155.61 71.886-83.5 120.658 0 120.658S155.61 71.885 189.395 1.275a2.96 2.96 0 0 0 0-2.551C155.61-71.886 83.5-120.658 0-120.658S-155.61-71.885-189.395-1.275" class="secondary" style="display:block" transform="translate(215 215)"/><g opacity=".5" style="mix-blend-mode:multiply;display:block"><path fill="#EBE6EF" d="M60 210c16.455-34.831 38.057-66.778 63.829-94.869-42.892 20.723-77.659 55.613-98.224 98.595a2.95 2.95 0 0 0 0 2.55c23.197 48.481 64.462 86.668 115.075 105.841C107.396 290.123 79.925 252.176 60 210" class="secondary" opacity="1"/></g><path fill="#4BB3FD" d="M0 80c44.221 0 80-35.779 80-80S44.221-80 0-80-80-44.221-80 0s35.779 80 80 80" class="quaternary" style="display:block" transform="translate(215 215)"/><g opacity=".5" style="mix-blend-mode:multiply;display:block"><path fill="#4BB3FD" d="M235 285.001a80 80 0 0 0 25.422-4.115c-12.898 8.903-28.545 14.115-45.422 14.115-44.221 0-80-35.78-80-80.001 0-35.332 22.84-65.275 54.577-75.885C168.68 153.54 155 177.657 155 205.001c0 44.221 35.779 80 80 80" class="quaternary" opacity="1"/></g><path fill="none" stroke="#121331" stroke-width="7" d="M0 80c44.221 0 80-35.779 80-80S44.221-80 0-80-80-44.221-80 0s35.779 80 80 80z" class="primary" style="display:block" transform="translate(215 215)"/><path fill="#3A3347" d="M0 40c22.11 0 40-17.889 40-40S22.11-40 0-40-40-22.111-40 0s17.89 40 40 40" class="tertiary" style="display:block" transform="translate(215 215)"/><g opacity=".5" style="mix-blend-mode:multiply;display:block"><path fill="#3A3347" d="M195 210c0 21.911 17.569 39.678 39.404 39.996A39.86 39.86 0 0 1 215 255c-22.11 0-40-17.889-40-40s17.89-40 40-40q.298 0 .597.004C203.308 181.826 195 194.933 195 210" class="tertiary" opacity="1"/></g><path fill="#EBE6EF" d="M0 17.5c9.673 0 17.5-7.827 17.5-17.5S9.673-17.5 0-17.5-17.5-9.673-17.5 0-9.673 17.5 0 17.5" class="secondary" style="display:block" transform="translate(187.5 187.5)"/></g><path fill="none" stroke="#121331" stroke-linecap="round" stroke-linejoin="round" stroke-width="7" d="M0-120.658c-84.003 0-156.476 49.36-190 120.658C-156.476 71.298-84.002 120.658 0 120.658c84.003 0 156.476-49.36 190-120.658C156.476-71.298 84.002-120.658 0-120.658" class="primary" style="display:block" transform="translate(215 215)"/></g><g clip-path="url(#ah)" style="display:none"><g clip-path="url(#ai)" mask="url(#aj)" style="display:none"><g clip-path="url(#ak)" mask="url(#al)" style="display:none"><path class="secondary" style="display:none"/><path class="secondary" style="mix-blend-mode:multiply;display:none"/><path class="quaternary" style="display:none"/><path class="quaternary" style="mix-blend-mode:multiply;display:none"/><path fill="none" class="primary" style="display:none"/><path class="tertiary" style="display:none"/><path class="tertiary" style="mix-blend-mode:multiply;display:none"/><path class="secondary" style="display:none"/></g><path fill="none" class="primary" style="display:none"/></g><path fill="none" class="primary" style="display:none"/><path fill="none" class="primary" style="display:none"/></g></g></svg>